<?xml version="1.0" standalone="no"?>
<!DOCTYPE svg PUBLIC "-//W3C//DTD SVG 20010904//EN"
 "http://www.w3.org/TR/2001/REC-SVG-20010904/DTD/svg10.dtd">
<svg version="1.0" xmlns="http://www.w3.org/2000/svg"
 width="460.000000pt" height="460.000000pt" viewBox="0 0 460.000000 460.000000"
 preserveAspectRatio="xMidYMid meet">
<metadata>
Created by potrace 1.14, written by Peter Selinger 2001-2017
</metadata>
<g transform="translate(0.000000,460.000000) scale(0.100000,-0.100000)"
fill="#000000" stroke="none">
<path d="M2575 4413 c-56 -13 -170 -80 -228 -134 l-65 -59 -129 0 c-71 0 -155
-5 -186 -11 l-57 -12 -83 86 c-106 108 -141 122 -219 86 -123 -58 -245 -283
-264 -489 -3 -36 -19 -99 -36 -140 -16 -41 -34 -108 -40 -148 -21 -134 22
-366 98 -531 19 -41 34 -75 34 -76 0 -1 -27 -12 -60 -24 -69 -25 -120 -64
-120 -92 0 -27 14 -24 67 13 25 17 68 39 94 49 l48 18 36 -42 c32 -38 34 -43
19 -52 -78 -46 -141 -94 -165 -128 -33 -46 -35 -55 -13 -64 12 -4 31 8 61 41
43 45 143 126 156 126 4 0 34 -20 68 -45 119 -88 250 -138 392 -152 37 -3 70
-9 72 -13 3 -4 -25 -16 -62 -26 -41 -11 -67 -24 -70 -34 -6 -22 -76 -52 -85
-37 -11 17 -31 -6 -26 -29 3 -13 12 -18 29 -17 33 2 128 48 202 97 49 33 66
39 123 42 71 4 107 -7 98 -30 -6 -16 51 -52 60 -37 3 4 -6 13 -21 20 -14 6
-23 14 -20 18 11 10 78 -39 75 -56 -5 -28 10 -42 32 -29 13 9 30 9 65 1 39 -9
45 -8 41 4 -3 8 -6 17 -6 19 0 2 -7 4 -15 4 -14 0 -14 11 0 82 1 9 -2 19 -9
22 -6 2 -2 5 9 6 14 2 11 4 -10 10 -20 4 -25 9 -15 12 8 3 40 15 70 26 l55 21
-106 0 c-94 1 -116 -3 -189 -29 -68 -25 -98 -30 -169 -30 -215 1 -445 99 -501
215 -24 49 -26 121 -5 172 21 49 19 80 -9 138 -23 51 -40 114 -50 193 -6 39
-4 43 26 62 41 25 85 26 92 3 2 -10 10 -45 16 -78 16 -85 67 -207 103 -245 50
-54 119 -80 213 -80 115 0 179 21 234 79 53 54 96 139 110 213 15 78 20 88 39
88 25 0 37 -17 45 -63 18 -100 66 -181 124 -211 70 -36 224 -12 311 48 70 49
100 113 113 242 8 71 15 107 25 111 7 3 13 18 13 34 0 21 -7 31 -27 41 -25 12
-29 20 -36 83 -11 98 -52 182 -131 263 l-64 67 -4 135 c-7 219 -50 282 -173
253z m245 -605 c48 -25 86 -83 96 -149 l6 -36 -98 -6 c-133 -7 -245 -32 -324
-70 -82 -39 -125 -40 -255 -4 -178 50 -409 47 -597 -8 -90 -26 -94 -21 -43 50
42 60 121 115 199 139 80 26 148 17 326 -39 131 -42 153 -46 225 -43 96 4 161
32 294 128 46 33 93 60 105 60 12 0 42 -10 66 -22z m155 -238 c3 -5 -3 -10
-15 -10 -12 0 -18 5 -15 10 3 6 10 10 15 10 5 0 12 -4 15 -10z m-1255 -70
c-20 -13 -40 -13 -40 0 0 6 12 10 28 10 21 0 24 -2 12 -10z m346 -150 c27 -19
53 -40 57 -47 4 -7 13 -13 18 -13 12 0 79 -50 79 -59 -1 -32 -42 -37 -72 -8
-7 7 -50 40 -96 74 -125 95 -191 147 -191 155 -1 4 11 8 27 10 20 2 41 -8 78
-38 28 -23 73 -56 100 -74z m576 55 c45 -36 103 -82 127 -103 24 -20 50 -41
59 -46 14 -8 13 -10 -2 -22 -15 -10 -21 -10 -35 4 -10 9 -57 51 -106 92 -144
122 -162 139 -143 140 9 0 54 -29 100 -65z"/>
<path d="M3278 3274 c-16 -32 -13 -67 5 -61 7 2 18 16 26 31 11 24 11 30 -2
43 -14 14 -17 12 -29 -13z"/>
<path d="M3100 3223 c-51 -9 -130 -35 -136 -44 -11 -19 4 -20 57 -5 29 9 74
16 101 16 36 0 48 4 48 15 0 8 -4 15 -9 15 -5 0 -15 2 -23 4 -7 2 -24 1 -38
-1z"/>
<path d="M2362 3094 c-12 -8 -20 -20 -17 -25 8 -13 52 -11 77 2 21 11 21 12 3
25 -24 18 -35 18 -63 -2z"/>
<path d="M2982 3068 c2 -6 29 -13 59 -15 30 -2 70 -8 89 -14 76 -20 97 -2 30
25 -49 19 -184 23 -178 4z"/>
<path d="M2168 2923 c7 -3 16 -2 19 1 4 3 -2 6 -13 5 -11 0 -14 -3 -6 -6z"/>
<path d="M3243 2625 c-55 -23 -88 -89 -108 -213 -18 -112 -14 -132 37 -185 44
-47 112 -79 167 -80 61 -2 144 22 137 39 -7 19 10 27 34 14 12 -6 44 -12 73
-12 29 -1 61 -7 72 -15 27 -18 79 -16 98 5 27 30 57 112 57 158 0 84 -62 169
-160 219 l-35 18 24 -26 c55 -60 -18 -62 -199 -5 -36 12 -74 27 -85 34 -25 18
-36 18 -29 -1 4 -8 2 -15 -2 -15 -13 0 -34 49 -28 64 6 16 -16 16 -53 1z"/>
<path d="M2110 2581 c0 -5 6 -11 12 -13 15 -5 -74 -94 -103 -103 -10 -4 -19
-10 -19 -14 0 -5 -30 -16 -66 -25 -79 -20 -134 -9 -134 26 0 12 -3 19 -6 15
-10 -10 7 -107 22 -122 17 -16 28 -13 109 33 33 19 80 46 105 60 25 13 69 44
99 68 59 49 92 55 131 24 14 -11 33 -20 42 -20 30 0 9 24 -37 43 -25 11 -45
23 -45 28 0 5 -25 9 -55 9 -30 0 -55 -4 -55 -9z"/>
<path d="M2542 2558 c-15 -15 -15 -45 0 -54 7 -4 8 -3 4 4 -4 6 -2 21 4 33 14
24 9 34 -8 17z"/>
<path d="M2503 2405 c0 -22 2 -30 4 -17 2 12 2 30 0 40 -3 9 -5 -1 -4 -23z"/>
<path d="M2560 2416 c0 -15 32 -76 40 -76 7 0 18 -30 18 -47 0 -3 7 -10 16
-15 33 -18 42 -126 10 -114 -10 4 -14 -4 -14 -31 l0 -36 -52 9 c-29 4 -75 8
-103 8 l-50 1 0 112 c0 61 -3 114 -6 117 -3 3 -6 -21 -6 -55 -1 -33 -6 -66
-12 -72 -6 -6 -38 -13 -71 -15 l-60 -4 0 41 c0 39 -13 55 -23 29 -3 -8 -6 -6
-6 5 -1 9 4 17 9 17 6 0 10 7 10 15 0 8 -4 15 -9 15 -10 0 -25 -41 -36 -97 -7
-37 -29 -43 -45 -12 -9 16 -8 26 3 43 8 12 21 41 28 64 6 23 15 40 18 37 4 -2
7 5 7 16 0 10 -4 19 -8 19 -19 0 -101 -66 -140 -113 -23 -28 -45 -54 -48 -57
-8 -7 -31 -50 -53 -95 -11 -22 -21 -42 -22 -43 -2 -2 -20 2 -39 9 -26 9 -39
10 -47 2 -7 -7 -3 -12 16 -17 33 -8 53 -27 48 -43 -3 -8 -13 -9 -34 -3 -32 9
-59 4 -59 -11 0 -5 13 -9 28 -9 16 0 36 -6 45 -12 15 -11 12 -13 -23 -12 -42
1 -110 -23 -110 -39 0 -6 20 -7 46 -3 26 3 71 6 101 6 l54 0 -16 30 c-8 16
-15 36 -15 45 0 25 55 118 113 192 89 113 105 129 117 117 7 -7 3 -21 -16 -50
-52 -76 -64 -134 -32 -155 6 -4 6 -15 -2 -29 -9 -18 -9 -28 0 -46 10 -19 10
-38 0 -99 -14 -82 -13 -85 38 -113 52 -29 143 -114 163 -154 23 -45 23 -48 4
-48 -8 0 -15 4 -15 10 0 17 -72 23 -124 10 -55 -14 -159 -61 -185 -84 -9 -7
-33 -19 -54 -26 -65 -20 -112 0 -201 86 -43 41 -83 74 -90 74 -14 0 -72 46
-118 94 -39 40 -81 130 -76 161 3 14 2 25 -1 25 -17 0 -44 -67 -48 -120 -5
-51 -2 -65 22 -107 39 -68 89 -117 173 -170 39 -25 72 -49 72 -52 0 -3 -14
-19 -31 -35 -24 -23 -29 -35 -27 -64 2 -27 8 -38 24 -42 11 -3 36 -23 55 -44
19 -22 54 -52 78 -68 l45 -28 218 0 218 0 0 -105 0 -105 290 0 c170 0 290 4
290 9 0 19 -97 92 -144 109 l-48 17 6 55 c32 291 32 619 2 753 -9 38 -13 73
-10 78 3 5 51 -37 107 -94 112 -114 164 -149 258 -173 122 -31 216 3 328 121
66 69 76 88 72 123 -1 7 9 33 23 57 29 48 33 63 14 48 -7 -6 -25 -13 -40 -17
-20 -4 -32 -17 -43 -43 -26 -63 -72 -86 -129 -66 -80 27 -123 63 -148 122 -13
31 -22 63 -22 73 1 14 -6 18 -30 17 -22 -1 -25 -3 -10 -6 16 -3 24 -14 28 -38
7 -38 55 -135 66 -135 3 0 15 -8 26 -17 10 -10 43 -29 72 -42 58 -27 67 -50
30 -82 -31 -27 -102 -58 -130 -57 -98 3 -253 88 -328 179 -19 24 -44 52 -55
64 -28 29 -51 74 -59 115 -8 43 -126 226 -126 196z m-150 -267 l0 -31 -74 4
c-41 2 -72 0 -70 -3 4 -7 -30 -19 -52 -19 -7 0 -9 10 -7 24 3 16 10 23 19 19
9 -3 14 0 12 7 -2 7 12 14 37 17 21 2 41 6 44 9 2 2 24 4 48 4 41 0 43 -1 43
-31z m257 -36 c2 -6 -2 -13 -9 -16 -9 -3 -14 3 -14 14 0 20 17 21 23 2z m-361
-502 c8 -16 14 -19 17 -10 2 8 3 1 1 -14 -2 -16 0 -26 6 -22 6 3 7 -1 4 -9 -3
-9 -1 -16 5 -16 6 0 11 -9 11 -20 0 -11 -4 -20 -10 -20 -5 0 -10 -6 -10 -14 0
-23 -73 -64 -138 -77 -114 -22 -182 9 -182 81 0 41 29 77 52 64 7 -4 10 -3 5
1 -9 11 22 45 42 45 9 0 24 7 34 15 11 7 25 11 32 9 7 -3 16 0 20 6 4 6 27 10
53 8 37 -2 49 -8 58 -27z"/>
<path d="M2270 1596 c0 -8 5 -18 10 -21 6 -3 10 3 10 14 0 12 -4 21 -10 21 -5
0 -10 -6 -10 -14z"/>
<path d="M2120 1579 c0 -5 5 -7 10 -4 6 3 10 8 10 11 0 2 -4 4 -10 4 -5 0 -10
-5 -10 -11z"/>
<path d="M2291 1544 c0 -11 3 -14 6 -6 3 7 2 16 -1 19 -3 4 -6 -2 -5 -13z"/>
<path d="M2232 1495 c0 -16 2 -22 5 -12 2 9 2 23 0 30 -3 6 -5 -1 -5 -18z"/>
<path d="M2031 1494 c0 -11 3 -14 6 -6 3 7 2 16 -1 19 -3 4 -6 -2 -5 -13z"/>
<path d="M2151 1494 c0 -11 3 -14 6 -6 3 7 2 16 -1 19 -3 4 -6 -2 -5 -13z"/>
<path d="M2496 2330 c7 -28 12 -35 18 -29 2 2 -2 15 -10 29 l-15 25 7 -25z"/>
<path d="M2336 2298 c1 -18 3 -35 4 -38 0 -3 5 3 11 12 7 12 6 24 -1 38 -15
28 -18 25 -14 -12z"/>
<path d="M2481 2308 c2 -25 17 -63 18 -46 1 9 5 18 9 20 4 2 0 11 -10 21 -11
10 -18 12 -17 5z"/>
<path d="M2616 2245 c5 -20 1 -26 -19 -34 -33 -13 -79 -5 -94 16 -14 18 -16
17 -30 -12 -15 -29 -6 -43 22 -37 14 2 33 1 42 -4 23 -9 29 -11 49 -13 12 -1
15 -8 12 -26 -3 -14 -2 -25 2 -25 8 0 30 100 30 137 0 13 -5 23 -10 23 -6 0
-8 -11 -4 -25z"/>
<path d="M1593 924 c-80 -29 -119 -107 -92 -186 15 -45 46 -72 139 -118 88
-44 120 -79 120 -129 0 -61 -7 -71 -52 -71 -50 0 -95 22 -134 67 -34 39 -60
41 -103 6 -21 -17 -21 -20 -7 -53 28 -69 72 -94 192 -111 94 -13 140 -1 188
48 89 92 47 208 -106 288 -82 43 -97 58 -98 97 0 38 33 58 96 58 l51 0 -5 53
c-2 28 -6 54 -8 56 -11 12 -144 9 -181 -5z"/>
<path d="M2093 923 c-7 -5 -23 -62 -37 -128 -14 -66 -30 -136 -36 -155 -14
-51 -70 -290 -70 -301 0 -10 53 -12 97 -3 26 5 31 12 42 57 8 29 21 71 32 95
15 35 23 42 48 44 17 0 36 1 43 2 15 1 43 -71 58 -147 l12 -58 36 6 c86 14 83
12 76 53 -8 43 -82 313 -114 417 -12 39 -24 80 -27 93 -4 16 -13 22 -33 22
-15 0 -47 2 -71 5 -24 3 -49 2 -56 -2z m111 -218 c14 -38 24 -71 22 -73 -2 -1
-23 -5 -46 -8 -42 -5 -43 -5 -36 23 4 15 12 52 18 81 5 29 12 52 13 50 2 -2
15 -35 29 -73z"/>
<path d="M2470 870 l0 -61 95 7 c66 5 95 3 95 -4 0 -6 -18 -62 -41 -124 -84
-234 -123 -347 -119 -352 6 -4 228 -10 343 -7 l77 1 0 62 0 61 -121 -6 c-95
-6 -120 -4 -116 6 3 6 28 68 56 137 27 69 69 168 94 220 25 52 45 99 46 103 1
5 -91 11 -204 14 l-205 5 0 -62z"/>
<path d="M2995 879 c-8 -47 -2 -56 40 -61 l30 -3 5 -165 c7 -218 5 -230 -26
-230 -22 0 -24 -4 -24 -51 l0 -51 118 7 c129 8 145 16 140 70 -3 27 -6 30 -41
30 l-37 0 0 56 c0 31 3 117 7 192 l6 137 29 0 c27 0 28 1 28 55 l0 55 -134 0
-134 0 -7 -41z"/>
<path d="M297 273 c-4 -3 -7 -15 -7 -25 0 -17 -11 -18 -145 -18 l-145 0 0
-115 0 -115 2300 0 c2293 0 2300 0 2300 20 0 20 -7 20 -1175 20 l-1174 0 -3
93 -3 92 -585 2 c-322 1 -602 3 -622 3 -34 0 -38 3 -38 25 l0 25 -348 0 c-192
0 -352 -3 -355 -7z"/>
</g>
</svg>
